<svg width="29" height="28" viewBox="0 0 29 28" fill="none" xmlns="http://www.w3.org/2000/svg">
<path d="M24 7.875H6.5C6.26794 7.875 6.04538 7.78281 5.88128 7.61872C5.71719 7.45462 5.625 7.23206 5.625 7C5.625 6.76794 5.71719 6.54538 5.88128 6.38128C6.04538 6.21719 6.26794 6.125 6.5 6.125H21.375C21.6071 6.125 21.8296 6.03281 21.9937 5.86872C22.1578 5.70462 22.25 5.48206 22.25 5.25C22.25 5.01794 22.1578 4.79538 21.9937 4.63128C21.8296 4.46719 21.6071 4.375 21.375 4.375H6.5C5.80405 4.3758 5.13683 4.65261 4.64472 5.14472C4.15261 5.63683 3.8758 6.30405 3.875 7V21C3.8758 21.6959 4.15261 22.3632 4.64472 22.8553C5.13683 23.3474 5.80405 23.6242 6.5 23.625H24C24.464 23.6245 24.9088 23.4399 25.2369 23.1119C25.5649 22.7838 25.7495 22.339 25.75 21.875V9.625C25.7495 9.16103 25.5649 8.71622 25.2369 8.38815C24.9088 8.06008 24.464 7.87553 24 7.875ZM20.0625 17.0625C19.8029 17.0625 19.5492 16.9855 19.3333 16.8413C19.1175 16.6971 18.9492 16.4921 18.8499 16.2523C18.7506 16.0124 18.7246 15.7485 18.7752 15.4939C18.8259 15.2393 18.9509 15.0055 19.1344 14.8219C19.318 14.6384 19.5518 14.5134 19.8064 14.4627C20.061 14.4121 20.3249 14.4381 20.5648 14.5374C20.8046 14.6367 21.0096 14.805 21.1538 15.0208C21.298 15.2367 21.375 15.4904 21.375 15.75C21.375 16.0981 21.2367 16.4319 20.9906 16.6781C20.7444 16.9242 20.4106 17.0625 20.0625 17.0625Z" fill="#3F63F6"/>
</svg>
