<svg width="29" height="28" viewBox="0 0 29 28" fill="none" xmlns="http://www.w3.org/2000/svg">
<path d="M14.625 2.625C12.3752 2.625 10.176 3.29213 8.30539 4.54203C6.43478 5.79193 4.97682 7.56847 4.11588 9.64698C3.25493 11.7255 3.02967 14.0126 3.46857 16.2192C3.90748 18.4257 4.99084 20.4525 6.58167 22.0433C8.17249 23.6342 10.1993 24.7175 12.4059 25.1564C14.6124 25.5953 16.8995 25.3701 18.978 24.5091C21.0565 23.6482 22.8331 22.1902 24.083 20.3196C25.3329 18.449 26 16.2498 26 14C25.9965 10.9842 24.797 8.09298 22.6645 5.96051C20.532 3.82804 17.6408 2.62849 14.625 2.625ZM20.75 14.875H14.625C14.5101 14.8751 14.3963 14.8525 14.2901 14.8085C14.1839 14.7646 14.0874 14.7001 14.0061 14.6189C13.9249 14.5376 13.8604 14.4411 13.8165 14.3349C13.7725 14.2287 13.7499 14.1149 13.75 14V7.875C13.75 7.64294 13.8422 7.42038 14.0063 7.25628C14.1704 7.09219 14.3929 7 14.625 7C14.8571 7 15.0796 7.09219 15.2437 7.25628C15.4078 7.42038 15.5 7.64294 15.5 7.875V13.125H20.75C20.9821 13.125 21.2046 13.2172 21.3687 13.3813C21.5328 13.5454 21.625 13.7679 21.625 14C21.625 14.2321 21.5328 14.4546 21.3687 14.6187C21.2046 14.7828 20.9821 14.875 20.75 14.875Z" fill="#3F63F6"/>
</svg>
