<svg width="29" height="28" viewBox="0 0 29 28" fill="none" xmlns="http://www.w3.org/2000/svg">
<path d="M14.125 17.9375C16.7829 17.9375 18.9375 15.7829 18.9375 13.125C18.9375 10.4671 16.7829 8.3125 14.125 8.3125C11.4671 8.3125 9.3125 10.4671 9.3125 13.125C9.3125 15.7829 11.4671 17.9375 14.125 17.9375Z" fill="#3F63F6"/>
<path d="M14.125 2.625C11.8752 2.625 9.676 3.29213 7.80539 4.54203C5.93478 5.79193 4.47682 7.56847 3.61588 9.64698C2.75493 11.7255 2.52967 14.0126 2.96857 16.2192C3.40748 18.4257 4.49084 20.4525 6.08167 22.0433C7.67249 23.6342 9.69932 24.7175 11.9059 25.1564C14.1124 25.5953 16.3995 25.3701 18.478 24.5091C20.5565 23.6482 22.3331 22.1902 23.583 20.3196C24.8329 18.449 25.5 16.2498 25.5 14C25.4966 10.9842 24.2971 8.09292 22.1646 5.96043C20.0321 3.82794 17.1408 2.62841 14.125 2.625ZM21.3173 20.3886C20.6149 19.371 19.704 18.5144 18.6452 17.8758C17.4276 19.0386 15.8087 19.6875 14.125 19.6875C12.4413 19.6875 10.8224 19.0386 9.60485 17.8758C8.546 18.5144 7.63512 19.371 6.93269 20.3886C5.6995 19.0019 4.89345 17.2883 4.61162 15.4541C4.32979 13.62 4.5842 11.7434 5.3442 10.0505C6.1042 8.35754 7.33738 6.9204 8.89526 5.9121C10.4531 4.90381 12.2693 4.36737 14.125 4.36737C15.9807 4.36737 17.7968 4.90381 19.3547 5.9121C20.9126 6.9204 22.1458 8.35754 22.9058 10.0505C23.6658 11.7434 23.9202 13.62 23.6384 15.4541C23.3565 17.2883 22.5505 19.0019 21.3173 20.3886Z" fill="#3F63F6"/>
</svg>
