<svg width="33" height="32" viewBox="0 0 33 32" fill="none" xmlns="http://www.w3.org/2000/svg">
<path d="M28.1667 6H4.16675C3.6365 6.00061 3.12815 6.21151 2.7532 6.58646C2.37826 6.9614 2.16735 7.46975 2.16675 8V12.092C2.16669 12.0969 2.16602 12.1017 2.16602 12.1066C2.16602 12.1114 2.16669 12.1162 2.16675 12.1211V24C2.16735 24.5302 2.37826 25.0386 2.7532 25.4135C3.12815 25.7885 3.6365 25.9994 4.16675 26H28.1667C28.697 25.9994 29.2054 25.7885 29.5803 25.4135C29.9552 25.0386 30.1661 24.5302 30.1667 24V8C30.1661 7.46975 29.9552 6.9614 29.5803 6.58646C29.2054 6.21151 28.697 6.00061 28.1667 6ZM17.166 22H15.166C14.9008 22 14.6464 21.8946 14.4589 21.7071C14.2714 21.5196 14.166 21.2652 14.166 21C14.166 20.7348 14.2714 20.4804 14.4589 20.2929C14.6464 20.1054 14.9008 20 15.166 20H17.166C17.4312 20 17.6856 20.1054 17.8731 20.2929C18.0607 20.4804 18.166 20.7348 18.166 21C18.166 21.2652 18.0607 21.5196 17.8731 21.7071C17.6856 21.8946 17.4312 22 17.166 22ZM25.166 22H21.166C20.9008 22 20.6464 21.8946 20.4589 21.7071C20.2714 21.5196 20.166 21.2652 20.166 21C20.166 20.7348 20.2714 20.4804 20.4589 20.2929C20.6464 20.1054 20.9008 20 21.166 20H25.166C25.4312 20 25.6856 20.1054 25.8731 20.2929C26.0607 20.4804 26.166 20.7348 26.166 21C26.166 21.2652 26.0607 21.5196 25.8731 21.7071C25.6856 21.8946 25.4312 22 25.166 22ZM4.16675 11.1066V8H28.1667L28.167 11.1066H4.16675Z" fill="#3F63F6"/>
</svg>
