<svg width="33" height="32" viewBox="0 0 33 32" fill="none" xmlns="http://www.w3.org/2000/svg">
<path d="M22.8359 4.00001C21.6718 3.99801 20.5232 4.2677 19.4816 4.78762C18.44 5.30755 17.5341 6.06336 16.8359 6.99494C15.8904 5.73687 14.5732 4.808 13.0706 4.33976C11.5681 3.87153 9.95641 3.88764 8.46356 4.38582C6.9707 4.884 5.67231 5.83901 4.7521 7.11574C3.83189 8.39246 3.33647 9.92623 3.33594 11.5C3.33594 20.4829 15.816 27.575 16.3473 27.8725C16.4966 27.9561 16.6648 28 16.8359 28C17.007 28 17.1753 27.9561 17.3246 27.8725C19.6199 26.5282 21.7742 24.9563 23.7549 23.1808C28.1217 19.2506 30.3359 15.3206 30.3359 11.5C30.3337 9.51158 29.5428 7.60523 28.1367 6.1992C26.7307 4.79316 24.8244 4.00226 22.8359 4.00001Z" fill="#3F63F6"/>
</svg>
