<svg width="33" height="32" viewBox="0 0 33 32" fill="none" xmlns="http://www.w3.org/2000/svg">
<path d="M27.4726 14.7705C27.435 14.6104 27.3586 14.4621 27.25 14.3387C27.1415 14.2152 27.0041 14.1204 26.8502 14.0627L19.6464 11.3613L21.4796 2.19512C21.5223 1.98177 21.4942 1.76033 21.3996 1.56438C21.3051 1.36844 21.1492 1.20868 20.9556 1.10934C20.7621 1.01001 20.5414 0.976506 20.327 1.01393C20.1127 1.05135 19.9164 1.15764 19.768 1.3167L5.76797 16.3167C5.65579 16.4369 5.57498 16.5829 5.53268 16.7418C5.49039 16.9006 5.48791 17.0675 5.52548 17.2275C5.56305 17.3876 5.63951 17.5359 5.74808 17.6594C5.85664 17.7828 5.99398 17.8776 6.14792 17.9354L13.3517 20.6368L11.5185 29.8029C11.4758 30.0163 11.5038 30.2377 11.5984 30.4337C11.693 30.6296 11.8489 30.7894 12.0424 30.8888C12.236 30.9881 12.4567 31.0216 12.6711 30.9842C12.8854 30.9467 13.0817 30.8404 13.2301 30.6813L27.2301 15.6813C27.3423 15.5611 27.4231 15.4151 27.4654 15.2563C27.5077 15.0974 27.5102 14.9306 27.4726 14.7705Z" fill="#3F63F6"/>
</svg>
