<svg width="16" height="16" viewBox="0 0 16 16" fill="none" xmlns="http://www.w3.org/2000/svg">
<path d="M12.635 12.5521C13.8301 11.3384 14.5 9.70334 14.5 8C14.5 6.29666 13.8301 4.66165 12.635 3.44794C12.611 3.41689 12.5832 3.38903 12.5521 3.36502C11.3384 2.16988 9.70337 1.5 8 1.5C6.29663 1.5 4.66159 2.16988 3.44787 3.36502C3.41683 3.38903 3.38897 3.41689 3.36496 3.44794C2.16986 4.66165 1.5 6.29666 1.5 8C1.5 9.70334 2.16986 11.3384 3.36496 12.5521C3.38897 12.5831 3.41684 12.611 3.44791 12.635C4.66161 13.8301 6.29664 14.5 8 14.5C9.70335 14.5 11.3384 13.8301 12.5521 12.635C12.5832 12.611 12.611 12.5831 12.635 12.5521ZM2.52298 8.5H4.03235C4.12162 9.21132 4.40139 9.88532 4.8421 10.4508L3.7753 11.5175C3.0605 10.6626 2.62361 9.60985 2.52298 8.5ZM3.7753 4.48245L4.8421 5.54924C4.40139 6.11468 4.12162 6.78868 4.03235 7.5H2.52298C2.62361 6.39015 3.0605 5.33742 3.7753 4.48245ZM13.477 7.5H11.9676C11.8784 6.78868 11.5986 6.11468 11.1579 5.54924L12.2247 4.48245C12.9395 5.33742 13.3764 6.39015 13.477 7.5ZM10.4507 4.84209C9.88531 4.40139 9.21131 4.12162 8.5 4.03236V2.52297C9.60985 2.62361 10.6626 3.06051 11.5175 3.7753L10.4507 4.84209ZM7.5 4.03236C6.78868 4.12162 6.11469 4.40139 5.54925 4.84209L4.48245 3.7753C5.33742 3.06051 6.39014 2.62361 7.5 2.52297V4.03236ZM5.54925 11.1579C6.11469 11.5986 6.78868 11.8784 7.5 11.9676V13.477C6.39014 13.3764 5.33742 12.9395 4.48245 12.2247L5.54925 11.1579ZM8.5 11.9676C9.21131 11.8784 9.88531 11.5986 10.4507 11.1579L11.5175 12.2247C10.6626 12.9395 9.60985 13.3764 8.5 13.477V11.9676ZM11.1579 10.4508C11.5986 9.88532 11.8784 9.21132 11.9676 8.5H13.477C13.3764 9.60985 12.9395 10.6626 12.2247 11.5175L11.1579 10.4508Z" fill="#D6C327"/>
</svg>
