<svg width="32" height="32" viewBox="0 0 32 32" fill="none" xmlns="http://www.w3.org/2000/svg">
<path d="M27.9998 6H3.99976C3.46951 6.00061 2.96115 6.21151 2.58621 6.58646C2.21127 6.9614 2.00036 7.46975 1.99976 8V12.092C1.99969 12.0969 1.99902 12.1017 1.99902 12.1066C1.99902 12.1114 1.99969 12.1162 1.99976 12.1211V24C2.00036 24.5302 2.21127 25.0386 2.58621 25.4135C2.96115 25.7885 3.46951 25.9994 3.99976 26H27.9998C28.53 25.9994 29.0384 25.7885 29.4133 25.4135C29.7882 25.0386 29.9991 24.5302 29.9998 24V8C29.9991 7.46975 29.7882 6.9614 29.4133 6.58646C29.0384 6.21151 28.53 6.00061 27.9998 6ZM16.999 22H14.999C14.7338 22 14.4795 21.8946 14.2919 21.7071C14.1044 21.5196 13.999 21.2652 13.999 21C13.999 20.7348 14.1044 20.4804 14.2919 20.2929C14.4795 20.1054 14.7338 20 14.999 20H16.999C17.2642 20 17.5186 20.1054 17.7061 20.2929C17.8937 20.4804 17.999 20.7348 17.999 21C17.999 21.2652 17.8937 21.5196 17.7061 21.7071C17.5186 21.8946 17.2642 22 16.999 22ZM24.999 22H20.999C20.7338 22 20.4795 21.8946 20.2919 21.7071C20.1044 21.5196 19.999 21.2652 19.999 21C19.999 20.7348 20.1044 20.4804 20.2919 20.2929C20.4795 20.1054 20.7338 20 20.999 20H24.999C25.2642 20 25.5186 20.1054 25.7061 20.2929C25.8937 20.4804 25.999 20.7348 25.999 21C25.999 21.2652 25.8937 21.5196 25.7061 21.7071C25.5186 21.8946 25.2642 22 24.999 22ZM3.99976 11.1066V8H27.9998L28 11.1066H3.99976Z" fill="#3F63F6"/>
</svg>
