<svg width="13" height="13" viewBox="0 0 13 13" fill="none" xmlns="http://www.w3.org/2000/svg">
<path d="M10.266 10.1986C11.237 9.21242 11.7813 7.88397 11.7813 6.50001C11.7813 5.11605 11.237 3.7876 10.266 2.80146C10.2465 2.77623 10.2238 2.75359 10.1986 2.73409C9.21247 1.76304 7.88399 1.21876 6.50001 1.21876C5.11602 1.21876 3.78755 1.76304 2.8014 2.73409C2.77618 2.75359 2.75354 2.77623 2.73404 2.80146C1.76302 3.7876 1.21876 5.11605 1.21876 6.50001C1.21876 7.88397 1.76302 9.21242 2.73404 10.1986C2.75355 10.2238 2.77619 10.2464 2.80143 10.2659C3.78757 11.237 5.11603 11.7813 6.50001 11.7813C7.88398 11.7813 9.21245 11.237 10.1986 10.2659C10.2238 10.2464 10.2465 10.2238 10.266 10.1986ZM2.04993 6.90626H3.27629C3.34882 7.48421 3.57614 8.03183 3.93421 8.49125L3.06744 9.35802C2.48667 8.66336 2.13169 7.80802 2.04993 6.90626ZM3.06744 3.642L3.93421 4.50877C3.57614 4.96819 3.34882 5.51581 3.27629 6.09376H2.04993C2.13169 5.192 2.48667 4.33666 3.06744 3.642ZM10.9501 6.09376H9.72373C9.65119 5.51581 9.42387 4.96819 9.0658 4.50877L9.93258 3.642C10.5133 4.33666 10.8683 5.192 10.9501 6.09376ZM8.49124 3.9342C8.03182 3.57613 7.4842 3.34883 6.90626 3.2763V2.04992C7.80801 2.13169 8.66335 2.48667 9.35802 3.06744L8.49124 3.9342ZM6.09376 3.2763C5.51581 3.34883 4.96819 3.57613 4.50878 3.9342L3.642 3.06744C4.33666 2.48667 5.192 2.13169 6.09376 2.04992V3.2763ZM4.50878 9.06581C4.96819 9.42389 5.51581 9.65119 6.09376 9.72371V10.9501C5.192 10.8683 4.33666 10.5134 3.642 9.93258L4.50878 9.06581ZM6.90626 9.72371C7.4842 9.65119 8.03182 9.42389 8.49124 9.06581L9.35802 9.93258C8.66335 10.5134 7.80801 10.8683 6.90626 10.9501V9.72371ZM9.0658 8.49125C9.42387 8.03183 9.65119 7.48421 9.72373 6.90626H10.9501C10.8683 7.80802 10.5133 8.66336 9.93258 9.35802L9.0658 8.49125Z" fill="#F9E636"/>
</svg>
