<svg width="48" height="48" viewBox="0 0 48 48" fill="none" xmlns="http://www.w3.org/2000/svg">
<path d="M43.4982 10.4642C43.4975 10.4365 43.4961 10.4088 43.494 10.3812C43.4922 10.3586 43.49 10.3362 43.4873 10.3139C43.4841 10.288 43.48 10.2622 43.4755 10.2365C43.4713 10.2132 43.4669 10.1901 43.4617 10.1673C43.4561 10.1429 43.4497 10.1186 43.443 10.0945C43.4365 10.0714 43.4298 10.0485 43.4223 10.0258C43.4144 10.0022 43.4056 9.97897 43.3965 9.95572C43.3879 9.93347 43.3791 9.91145 43.3694 9.8898C43.3592 9.86691 43.3481 9.84443 43.3368 9.822C43.326 9.80072 43.3149 9.77966 43.3032 9.75897C43.2909 9.7376 43.278 9.71658 43.2647 9.69566C43.2513 9.67456 43.2374 9.65387 43.223 9.6335C43.2094 9.61432 43.1952 9.5955 43.1807 9.57683C43.1642 9.55582 43.1472 9.53539 43.1297 9.5153C43.1214 9.50583 43.1143 9.49576 43.1058 9.48643C43.0985 9.47855 43.0906 9.47187 43.0832 9.46418C43.0651 9.44523 43.0464 9.42706 43.0273 9.40906C43.0096 9.3924 42.9919 9.37588 42.9736 9.36018C42.9555 9.3448 42.9369 9.33024 42.9182 9.31568C42.8977 9.29974 42.8773 9.28396 42.8561 9.26927C42.8378 9.25649 42.8188 9.24464 42.8 9.23269C42.7776 9.21859 42.7554 9.20454 42.7325 9.19172C42.7125 9.18055 42.692 9.17043 42.6716 9.16018C42.649 9.14887 42.6266 9.13747 42.6035 9.12737C42.5811 9.11748 42.5581 9.10887 42.5351 9.10008C42.5131 9.09166 42.4911 9.0831 42.4687 9.07578C42.4445 9.06777 42.4197 9.06108 42.395 9.05431C42.3727 9.04826 42.3506 9.04218 42.3283 9.03719C42.3036 9.03165 42.2785 9.0273 42.2533 9.023C42.2296 9.01897 42.2059 9.01503 42.182 9.01215C42.1583 9.00926 42.1344 9.00734 42.1103 9.0056C42.0841 9.00368 42.0579 9.00217 42.0317 9.00162C42.0211 9.00137 42.0107 9 42 9H6C5.98993 9 5.98022 9.00133 5.97015 9.00151C5.94251 9.00206 5.91486 9.00362 5.8873 9.00568C5.8645 9.00742 5.84189 9.0092 5.81946 9.0119C5.79428 9.01492 5.76929 9.01904 5.7442 9.02339C5.72031 9.02752 5.69641 9.03159 5.67297 9.03685C5.64935 9.04211 5.6261 9.04852 5.60266 9.05493C5.57904 9.06143 5.55542 9.06779 5.53226 9.07539C5.50882 9.08308 5.48576 9.09201 5.46259 9.10089C5.4407 9.10932 5.41873 9.11755 5.39731 9.12694C5.37341 9.13742 5.35006 9.14923 5.32662 9.16104C5.30693 9.17093 5.28724 9.18059 5.26812 9.1913C5.24468 9.20444 5.22179 9.21886 5.19891 9.23337C5.1806 9.245 5.1621 9.25653 5.14434 9.26894C5.12283 9.28386 5.10205 9.29988 5.08127 9.31609C5.06277 9.33042 5.04446 9.34479 5.0267 9.35999C5.00821 9.37578 4.99036 9.3924 4.97241 9.40929C4.95346 9.42714 4.93488 9.44527 4.91684 9.46408C4.90952 9.47182 4.90146 9.47855 4.89423 9.48642C4.88571 9.49576 4.87857 9.50583 4.87033 9.5153C4.85284 9.53539 4.83582 9.55581 4.81933 9.57682C4.80478 9.5955 4.79058 9.61432 4.77703 9.63349C4.76257 9.65386 4.74874 9.67455 4.73529 9.69565C4.72201 9.71658 4.7091 9.73759 4.69683 9.75896C4.68511 9.77965 4.67404 9.80071 4.66324 9.822C4.65188 9.84443 4.6408 9.86691 4.63055 9.88979C4.62094 9.91145 4.61206 9.93346 4.60345 9.95571C4.59439 9.97896 4.5856 10.0022 4.57772 10.0258C4.57022 10.0485 4.56353 10.0713 4.55703 10.0945C4.55026 10.1186 4.54385 10.1428 4.53827 10.1673C4.53314 10.1901 4.52865 10.2132 4.52453 10.2365C4.51996 10.2622 4.51593 10.288 4.51272 10.3139C4.50997 10.3362 4.50774 10.3586 4.50604 10.3812C4.50384 10.4089 4.50244 10.4365 4.50183 10.4642C4.50156 10.4762 4.5 10.4879 4.5 10.5V36C4.50091 36.7954 4.81727 37.5579 5.37968 38.1203C5.9421 38.6827 6.70463 38.9991 7.5 39H40.5C41.2954 38.9991 42.0579 38.6827 42.6203 38.1203C43.1827 37.5579 43.4991 36.7954 43.5 36V10.5C43.5 10.4879 43.4984 10.4762 43.4982 10.4642ZM7.5 13.9099L18.5074 24.0001L7.5 34.0901V13.9099ZM9.85638 36L20.7274 26.035L22.9863 28.1057C23.263 28.3593 23.6247 28.5 24 28.5C24.3753 28.5 24.737 28.3593 25.0137 28.1057L27.2727 26.0349L38.1437 36H9.85638ZM29.4926 24L40.5003 13.9097L40.5017 34.0915L29.4926 24Z" fill="#3F63F6"/>
</svg>
