<svg width="24" height="24" viewBox="0 0 24 24" fill="none" xmlns="http://www.w3.org/2000/svg">
<path d="M19.5 3H4.5C4.1023 3.00039 3.72099 3.15855 3.43977 3.43977C3.15855 3.72099 3.00039 4.1023 3 4.5V19.5C3.00039 19.8977 3.15855 20.279 3.43977 20.5602C3.72099 20.8414 4.1023 20.9996 4.5 21H19.5C19.8977 20.9996 20.279 20.8414 20.5602 20.5602C20.8414 20.279 20.9996 19.8977 21 19.5V4.5C20.9996 4.1023 20.8414 3.72099 20.5602 3.43977C20.279 3.15855 19.8977 3.00039 19.5 3ZM16.6428 10.292L11.1423 15.542C11.003 15.6755 10.8175 15.75 10.6245 15.75C10.4315 15.75 10.246 15.6755 10.1067 15.542L7.35718 12.917C7.28581 12.849 7.22853 12.7677 7.18864 12.6776C7.14874 12.5875 7.127 12.4904 7.12467 12.3918C7.12234 12.2933 7.13946 12.1953 7.17504 12.1034C7.21063 12.0115 7.26399 11.9275 7.33207 11.8563C7.40014 11.785 7.4816 11.7279 7.57178 11.6882C7.66196 11.6484 7.75909 11.6268 7.85762 11.6247C7.95614 11.6225 8.05413 11.6398 8.14596 11.6756C8.2378 11.7113 8.32169 11.7648 8.39282 11.833L10.6245 13.9629L15.6072 9.20801C15.6783 9.13981 15.7622 9.0863 15.854 9.05056C15.9459 9.01481 16.0439 8.99752 16.1424 8.99968C16.2409 9.00185 16.338 9.02341 16.4282 9.06315C16.5184 9.10289 16.5999 9.16002 16.6679 9.23128C16.736 9.30253 16.7894 9.38651 16.825 9.47841C16.8605 9.57031 16.8777 9.66832 16.8753 9.76684C16.873 9.86536 16.8513 9.96246 16.8114 10.0526C16.7715 10.1427 16.7142 10.224 16.6428 10.292H16.6428Z" fill="#3F63F6"/>
</svg>
