<svg width="16" height="16" viewBox="0 0 16 16" fill="none" xmlns="http://www.w3.org/2000/svg">
<path d="M11.0015 2.00001C10.4194 1.99901 9.8451 2.13385 9.3243 2.39381C8.8035 2.65377 8.35054 3.03168 8.00146 3.49747C7.52869 2.86844 6.87008 2.404 6.11882 2.16988C5.36756 1.93576 4.5617 1.94382 3.81528 2.19291C3.06885 2.442 2.41965 2.91951 1.95955 3.55787C1.49944 4.19623 1.25173 4.96311 1.25146 5.75001C1.25146 10.2414 7.49152 13.7875 7.75714 13.9363C7.83179 13.9781 7.91591 14 8.00146 14C8.08702 14 8.17114 13.9781 8.24579 13.9363C9.39345 13.2641 10.4706 12.4782 11.4609 11.5904C13.6443 9.62531 14.7515 7.66031 14.7515 5.75001C14.7503 4.75579 14.3549 3.80262 13.6519 3.0996C12.9489 2.39658 11.9957 2.00113 11.0015 2.00001Z" fill="#3F63F6"/>
</svg>
