<svg width="16" height="16" viewBox="0 0 16 16" fill="none" xmlns="http://www.w3.org/2000/svg">
<path d="M13.4868 7.38525C13.468 7.30522 13.4298 7.23106 13.3755 7.16933C13.3212 7.1076 13.2526 7.0602 13.1756 7.03133L9.57369 5.68063L10.4903 1.09756C10.5116 0.990884 10.4976 0.880164 10.4503 0.782192C10.403 0.68422 10.3251 0.604342 10.2283 0.554672C10.1315 0.505003 10.0212 0.488253 9.91401 0.506963C9.80684 0.525673 9.7087 0.578822 9.63448 0.658349L2.63447 8.15835C2.57839 8.21844 2.53798 8.29144 2.51683 8.37088C2.49568 8.45031 2.49445 8.53374 2.51323 8.61377C2.53201 8.6938 2.57024 8.76796 2.62453 8.82969C2.67881 8.89142 2.74748 8.93881 2.82445 8.96768L6.42635 10.3184L5.50972 14.9015C5.48838 15.0081 5.50241 15.1189 5.54969 15.2168C5.59697 15.3148 5.67492 15.3947 5.77171 15.4444C5.8685 15.494 5.97885 15.5108 6.08602 15.4921C6.19319 15.4734 6.29133 15.4202 6.36556 15.3407L13.3656 7.84066C13.4216 7.78057 13.462 7.70757 13.4832 7.62813C13.5043 7.5487 13.5056 7.46528 13.4868 7.38525Z" fill="#3F63F6"/>
</svg>
