<svg width="28" height="28" viewBox="0 0 28 28" fill="none" xmlns="http://www.w3.org/2000/svg">
<path d="M14 2.625C11.7502 2.625 9.551 3.29213 7.68039 4.54203C5.80978 5.79193 4.35182 7.56847 3.49088 9.64698C2.62993 11.7255 2.40467 14.0126 2.84357 16.2192C3.28248 18.4257 4.36584 20.4525 5.95667 22.0433C7.54749 23.6342 9.57432 24.7175 11.7809 25.1564C13.9874 25.5953 16.2745 25.3701 18.353 24.5091C20.4315 23.6482 22.2081 22.1902 23.458 20.3196C24.7079 18.449 25.375 16.2498 25.375 14C25.3715 10.9842 24.172 8.09298 22.0395 5.96051C19.907 3.82804 17.0158 2.62849 14 2.625ZM20.125 14.875H14C13.8851 14.8751 13.7713 14.8525 13.6651 14.8085C13.5589 14.7646 13.4624 14.7001 13.3811 14.6189C13.2999 14.5376 13.2354 14.4411 13.1915 14.3349C13.1475 14.2287 13.1249 14.1149 13.125 14V7.875C13.125 7.64294 13.2172 7.42038 13.3813 7.25628C13.5454 7.09219 13.7679 7 14 7C14.2321 7 14.4546 7.09219 14.6187 7.25628C14.7828 7.42038 14.875 7.64294 14.875 7.875V13.125H20.125C20.3571 13.125 20.5796 13.2172 20.7437 13.3813C20.9078 13.5454 21 13.7679 21 14C21 14.2321 20.9078 14.4546 20.7437 14.6187C20.5796 14.7828 20.3571 14.875 20.125 14.875Z" fill="#3F63F6"/>
</svg>
