<svg width="142" height="110" viewBox="0 0 142 110" fill="none" xmlns="http://www.w3.org/2000/svg">
<path fill-rule="evenodd" clip-rule="evenodd" d="M103.784 10.7651C104.554 12.0944 106.474 12.0944 107.244 10.7651L110.017 5.98184C112.163 2.27927 116.119 0 120.399 0H134C138.418 0 142 3.58172 142 8V102C142 106.418 138.418 110 134 110H120.399C116.119 110 112.163 107.721 110.017 104.018L107.244 99.2349C106.474 97.9056 104.554 97.9056 103.784 99.2349L101.011 104.018C98.8647 107.721 94.9089 110 90.6292 110H8C3.58172 110 0 106.418 0 102V8C0 3.58172 3.58172 0 8 0H90.6292C94.9089 0 98.8647 2.27927 101.011 5.98185L103.784 10.7651Z" fill="white"/>
</svg>
