<svg width="40" height="40" viewBox="0 0 40 40" fill="none" xmlns="http://www.w3.org/2000/svg">
<path d="M20 3.75C16.7861 3.75 13.6443 4.70305 10.972 6.48862C8.29969 8.27419 6.21689 10.8121 4.98696 13.7814C3.75704 16.7507 3.43524 20.018 4.06225 23.1702C4.68926 26.3224 6.23692 29.2179 8.50952 31.4905C10.7821 33.7631 13.6776 35.3107 16.8298 35.9378C19.982 36.5648 23.2493 36.243 26.2186 35.013C29.1879 33.7831 31.7258 31.7003 33.5114 29.028C35.297 26.3557 36.25 23.2139 36.25 20C36.245 15.6918 34.5314 11.5614 31.485 8.51501C28.4386 5.46863 24.3082 3.75498 20 3.75ZM27.7393 17.1545L18.5718 25.9045C18.3387 26.1263 18.0293 26.25 17.7075 26.25C17.3858 26.25 17.0764 26.1263 16.8433 25.9045L12.2607 21.5295C12.0213 21.3002 11.8827 20.9852 11.8754 20.6538C11.8681 20.3223 11.9926 20.0015 12.2216 19.7618C12.4506 19.5221 12.7654 19.3831 13.0969 19.3754C13.4283 19.3676 13.7493 19.4917 13.9893 19.7205L17.7075 23.2715L26.0107 15.3455C26.2507 15.1167 26.5717 14.9926 26.9031 15.0004C27.2346 15.0081 27.5494 15.1471 27.7784 15.3868C28.0074 15.6265 28.1319 15.9473 28.1246 16.2788C28.1173 16.6102 27.9787 16.9252 27.7393 17.1545Z" fill="white"/>
</svg>
