<svg width="327" height="327" viewBox="0 0 327 327" fill="none" xmlns="http://www.w3.org/2000/svg">
<rect width="327" height="327" rx="16" fill="#6E8CF9"/>
<path d="M110.587 24H100.966V33.6207H110.587V24Z" fill="white"/>
<path d="M149.069 24H139.448V33.6207H149.069V24Z" fill="white"/>
<path d="M177.931 24H168.31V33.6207H177.931V24Z" fill="white"/>
<path d="M187.551 24H177.931V33.6207H187.551V24Z" fill="white"/>
<path d="M197.172 24H187.552V33.6207H197.172V24Z" fill="white"/>
<path d="M206.793 24H197.172V33.6207H206.793V24Z" fill="white"/>
<path d="M110.587 33.6206H100.966V43.2413H110.587V33.6206Z" fill="white"/>
<path d="M120.207 33.6206H110.586V43.2413H120.207V33.6206Z" fill="white"/>
<path d="M129.828 33.6206H120.207V43.2413H129.828V33.6206Z" fill="white"/>
<path d="M149.069 33.6206H139.448V43.2413H149.069V33.6206Z" fill="white"/>
<path d="M187.551 33.6206H177.931V43.2413H187.551V33.6206Z" fill="white"/>
<path d="M216.414 33.6206H206.793V43.2413H216.414V33.6206Z" fill="white"/>
<path d="M226.035 33.6206H216.414V43.2413H226.035V33.6206Z" fill="white"/>
<path d="M110.587 43.2417H100.966V52.8624H110.587V43.2417Z" fill="white"/>
<path d="M120.207 43.2417H110.586V52.8624H120.207V43.2417Z" fill="white"/>
<path d="M129.828 43.2417H120.207V52.8624H129.828V43.2417Z" fill="white"/>
<path d="M177.931 43.2417H168.31V52.8624H177.931V43.2417Z" fill="white"/>
<path d="M187.551 43.2417H177.931V52.8624H187.551V43.2417Z" fill="white"/>
<path d="M226.035 43.2417H216.414V52.8624H226.035V43.2417Z" fill="white"/>
<path d="M120.207 52.8618H110.586V62.4825H120.207V52.8618Z" fill="white"/>
<path d="M149.069 52.8618H139.448V62.4825H149.069V52.8618Z" fill="white"/>
<path d="M187.551 52.8618H177.931V62.4825H187.551V52.8618Z" fill="white"/>
<path d="M197.172 52.8618H187.552V62.4825H197.172V52.8618Z" fill="white"/>
<path d="M110.587 62.4824H100.966V72.1031H110.587V62.4824Z" fill="white"/>
<path d="M120.207 62.4824H110.586V72.1031H120.207V62.4824Z" fill="white"/>
<path d="M129.828 62.4824H120.207V72.1031H129.828V62.4824Z" fill="white"/>
<path d="M139.448 62.4824H129.828V72.1031H139.448V62.4824Z" fill="white"/>
<path d="M168.311 62.4824H158.69V72.1031H168.311V62.4824Z" fill="white"/>
<path d="M177.931 62.4824H168.31V72.1031H177.931V62.4824Z" fill="white"/>
<path d="M187.551 62.4824H177.931V72.1031H187.551V62.4824Z" fill="white"/>
<path d="M206.793 62.4824H197.172V72.1031H206.793V62.4824Z" fill="white"/>
<path d="M216.414 62.4824H206.793V72.1031H216.414V62.4824Z" fill="white"/>
<path d="M120.207 72.1035H110.586V81.7242H120.207V72.1035Z" fill="white"/>
<path d="M129.828 72.1035H120.207V81.7242H129.828V72.1035Z" fill="white"/>
<path d="M139.448 72.1035H129.828V81.7242H139.448V72.1035Z" fill="white"/>
<path d="M149.069 72.1035H139.448V81.7242H149.069V72.1035Z" fill="white"/>
<path d="M177.931 72.1035H168.31V81.7242H177.931V72.1035Z" fill="white"/>
<path d="M187.551 72.1035H177.931V81.7242H187.551V72.1035Z" fill="white"/>
<path d="M206.793 72.1035H197.172V81.7242H206.793V72.1035Z" fill="white"/>
<path d="M226.035 72.1035H216.414V81.7242H226.035V72.1035Z" fill="white"/>
<path d="M110.587 81.7241H100.966V91.3448H110.587V81.7241Z" fill="white"/>
<path d="M129.828 81.7241H120.207V91.3448H129.828V81.7241Z" fill="white"/>
<path d="M149.069 81.7241H139.448V91.3448H149.069V81.7241Z" fill="white"/>
<path d="M168.311 81.7241H158.69V91.3448H168.311V81.7241Z" fill="white"/>
<path d="M187.551 81.7241H177.931V91.3448H187.551V81.7241Z" fill="white"/>
<path d="M206.793 81.7241H197.172V91.3448H206.793V81.7241Z" fill="white"/>
<path d="M226.035 81.7241H216.414V91.3448H226.035V81.7241Z" fill="white"/>
<path d="M120.207 91.3452H110.586V100.966H120.207V91.3452Z" fill="white"/>
<path d="M139.448 91.3452H129.828V100.966H139.448V91.3452Z" fill="white"/>
<path d="M149.069 91.3452H139.448V100.966H149.069V91.3452Z" fill="white"/>
<path d="M158.69 91.3452H149.069V100.966H158.69V91.3452Z" fill="white"/>
<path d="M177.931 91.3452H168.31V100.966H177.931V91.3452Z" fill="white"/>
<path d="M187.551 91.3452H177.931V100.966H187.551V91.3452Z" fill="white"/>
<path d="M33.6207 100.966H24V110.587H33.6207V100.966Z" fill="white"/>
<path d="M62.4825 100.966H52.8618V110.587H62.4825V100.966Z" fill="white"/>
<path d="M72.1031 100.966H62.4824V110.587H72.1031V100.966Z" fill="white"/>
<path d="M81.7242 100.966H72.1035V110.587H81.7242V100.966Z" fill="white"/>
<path d="M91.3448 100.966H81.7241V110.587H91.3448V100.966Z" fill="white"/>
<path d="M100.966 100.966H91.3452V110.587H100.966V100.966Z" fill="white"/>
<path d="M110.587 100.966H100.966V110.587H110.587V100.966Z" fill="white"/>
<path d="M139.448 100.966H129.828V110.587H139.448V100.966Z" fill="white"/>
<path d="M149.069 100.966H139.448V110.587H149.069V100.966Z" fill="white"/>
<path d="M158.69 100.966H149.069V110.587H158.69V100.966Z" fill="white"/>
<path d="M197.172 100.966H187.552V110.587H197.172V100.966Z" fill="white"/>
<path d="M235.655 100.966H226.034V110.587H235.655V100.966Z" fill="white"/>
<path d="M264.517 100.966H254.896V110.587H264.517V100.966Z" fill="white"/>
<path d="M283.759 100.966H274.138V110.587H283.759V100.966Z" fill="white"/>
<path d="M293.379 100.966H283.758V110.587H293.379V100.966Z" fill="white"/>
<path d="M303 100.966H293.379V110.587H303V100.966Z" fill="white"/>
<path d="M52.8624 110.586H43.2417V120.207H52.8624V110.586Z" fill="white"/>
<path d="M72.1031 110.586H62.4824V120.207H72.1031V110.586Z" fill="white"/>
<path d="M100.966 110.586H91.3452V120.207H100.966V110.586Z" fill="white"/>
<path d="M120.207 110.586H110.586V120.207H120.207V110.586Z" fill="white"/>
<path d="M149.069 110.586H139.448V120.207H149.069V110.586Z" fill="white"/>
<path d="M158.69 110.586H149.069V120.207H158.69V110.586Z" fill="white"/>
<path d="M187.551 110.586H177.931V120.207H187.551V110.586Z" fill="white"/>
<path d="M216.414 110.586H206.793V120.207H216.414V110.586Z" fill="white"/>
<path d="M226.035 110.586H216.414V120.207H226.035V110.586Z" fill="white"/>
<path d="M254.897 110.586H245.276V120.207H254.897V110.586Z" fill="white"/>
<path d="M264.517 110.586H254.896V120.207H264.517V110.586Z" fill="white"/>
<path d="M283.759 110.586H274.138V120.207H283.759V110.586Z" fill="white"/>
<path d="M293.379 110.586H283.758V120.207H293.379V110.586Z" fill="white"/>
<path d="M33.6207 120.207H24V129.828H33.6207V120.207Z" fill="white"/>
<path d="M43.2413 120.207H33.6206V129.828H43.2413V120.207Z" fill="white"/>
<path d="M52.8624 120.207H43.2417V129.828H52.8624V120.207Z" fill="white"/>
<path d="M81.7242 120.207H72.1035V129.828H81.7242V120.207Z" fill="white"/>
<path d="M91.3448 120.207H81.7241V129.828H91.3448V120.207Z" fill="white"/>
<path d="M100.966 120.207H91.3452V129.828H100.966V120.207Z" fill="white"/>
<path d="M139.448 120.207H129.828V129.828H139.448V120.207Z" fill="white"/>
<path d="M158.69 120.207H149.069V129.828H158.69V120.207Z" fill="white"/>
<path d="M177.931 120.207H168.31V129.828H177.931V120.207Z" fill="white"/>
<path d="M187.551 120.207H177.931V129.828H187.551V120.207Z" fill="white"/>
<path d="M197.172 120.207H187.552V129.828H197.172V120.207Z" fill="white"/>
<path d="M235.655 120.207H226.034V129.828H235.655V120.207Z" fill="white"/>
<path d="M254.897 120.207H245.276V129.828H254.897V120.207Z" fill="white"/>
<path d="M283.759 120.207H274.138V129.828H283.759V120.207Z" fill="white"/>
<path d="M43.2413 129.828H33.6206V139.448H43.2413V129.828Z" fill="white"/>
<path d="M62.4825 129.828H52.8618V139.448H62.4825V129.828Z" fill="white"/>
<path d="M72.1031 129.828H62.4824V139.448H72.1031V129.828Z" fill="white"/>
<path d="M81.7242 129.828H72.1035V139.448H81.7242V129.828Z" fill="white"/>
<path d="M100.966 129.828H91.3452V139.448H100.966V129.828Z" fill="white"/>
<path d="M129.828 129.828H120.207V139.448H129.828V129.828Z" fill="white"/>
<path d="M139.448 129.828H129.828V139.448H139.448V129.828Z" fill="white"/>
<path d="M149.069 129.828H139.448V139.448H149.069V129.828Z" fill="white"/>
<path d="M158.69 129.828H149.069V139.448H158.69V129.828Z" fill="white"/>
<path d="M187.551 129.828H177.931V139.448H187.551V129.828Z" fill="white"/>
<path d="M197.172 129.828H187.552V139.448H197.172V129.828Z" fill="white"/>
<path d="M206.793 129.828H197.172V139.448H206.793V129.828Z" fill="white"/>
<path d="M226.035 129.828H216.414V139.448H226.035V129.828Z" fill="white"/>
<path d="M254.897 129.828H245.276V139.448H254.897V129.828Z" fill="white"/>
<path d="M264.517 129.828H254.896V139.448H264.517V129.828Z" fill="white"/>
<path d="M274.138 129.828H264.518V139.448H274.138V129.828Z" fill="white"/>
<path d="M303 129.828H293.379V139.448H303V129.828Z" fill="white"/>
<path d="M43.2413 139.448H33.6206V149.069H43.2413V139.448Z" fill="white"/>
<path d="M72.1031 139.448H62.4824V149.069H72.1031V139.448Z" fill="white"/>
<path d="M81.7242 139.448H72.1035V149.069H81.7242V139.448Z" fill="white"/>
<path d="M91.3448 139.448H81.7241V149.069H91.3448V139.448Z" fill="white"/>
<path d="M100.966 139.448H91.3452V149.069H100.966V139.448Z" fill="white"/>
<path d="M110.587 139.448H100.966V149.069H110.587V139.448Z" fill="white"/>
<path d="M120.207 139.448H110.586V149.069H120.207V139.448Z" fill="white"/>
<path d="M129.828 139.448H120.207V149.069H129.828V139.448Z" fill="white"/>
<path d="M158.69 139.448H149.069V149.069H158.69V139.448Z" fill="white"/>
<path d="M177.931 139.448H168.31V149.069H177.931V139.448Z" fill="white"/>
<path d="M187.551 139.448H177.931V149.069H187.551V139.448Z" fill="white"/>
<path d="M226.035 139.448H216.414V149.069H226.035V139.448Z" fill="white"/>
<path d="M245.275 139.448H235.655V149.069H245.275V139.448Z" fill="white"/>
<path d="M254.897 139.448H245.276V149.069H254.897V139.448Z" fill="white"/>
<path d="M303 139.448H293.379V149.069H303V139.448Z" fill="white"/>
<path d="M33.6207 149.069H24V158.69H33.6207V149.069Z" fill="white"/>
<path d="M52.8624 149.069H43.2417V158.69H52.8624V149.069Z" fill="white"/>
<path d="M81.7242 149.069H72.1035V158.69H81.7242V149.069Z" fill="white"/>
<path d="M120.207 149.069H110.586V158.69H120.207V149.069Z" fill="white"/>
<path d="M129.828 149.069H120.207V158.69H129.828V149.069Z" fill="white"/>
<path d="M139.448 149.069H129.828V158.69H139.448V149.069Z" fill="white"/>
<path d="M149.069 149.069H139.448V158.69H149.069V149.069Z" fill="white"/>
<path d="M158.69 149.069H149.069V158.69H158.69V149.069Z" fill="white"/>
<path d="M168.311 149.069H158.69V158.69H168.311V149.069Z" fill="white"/>
<path d="M187.551 149.069H177.931V158.69H187.551V149.069Z" fill="white"/>
<path d="M197.172 149.069H187.552V158.69H197.172V149.069Z" fill="white"/>
<path d="M206.793 149.069H197.172V158.69H206.793V149.069Z" fill="white"/>
<path d="M245.275 149.069H235.655V158.69H245.275V149.069Z" fill="white"/>
<path d="M254.897 149.069H245.276V158.69H254.897V149.069Z" fill="white"/>
<path d="M264.517 149.069H254.896V158.69H264.517V149.069Z" fill="white"/>
<path d="M274.138 149.069H264.518V158.69H274.138V149.069Z" fill="white"/>
<path d="M283.759 149.069H274.138V158.69H283.759V149.069Z" fill="white"/>
<path d="M293.379 149.069H283.758V158.69H293.379V149.069Z" fill="white"/>
<path d="M303 149.069H293.379V158.69H303V149.069Z" fill="white"/>
<path d="M43.2413 158.69H33.6206V168.311H43.2413V158.69Z" fill="white"/>
<path d="M72.1031 158.69H62.4824V168.311H72.1031V158.69Z" fill="white"/>
<path d="M81.7242 158.69H72.1035V168.311H81.7242V158.69Z" fill="white"/>
<path d="M91.3448 158.69H81.7241V168.311H91.3448V158.69Z" fill="white"/>
<path d="M100.966 158.69H91.3452V168.311H100.966V158.69Z" fill="white"/>
<path d="M110.587 158.69H100.966V168.311H110.587V158.69Z" fill="white"/>
<path d="M129.828 158.69H120.207V168.311H129.828V158.69Z" fill="white"/>
<path d="M149.069 158.69H139.448V168.311H149.069V158.69Z" fill="white"/>
<path d="M158.69 158.69H149.069V168.311H158.69V158.69Z" fill="white"/>
<path d="M187.551 158.69H177.931V168.311H187.551V158.69Z" fill="white"/>
<path d="M197.172 158.69H187.552V168.311H197.172V158.69Z" fill="white"/>
<path d="M216.414 158.69H206.793V168.311H216.414V158.69Z" fill="white"/>
<path d="M226.035 158.69H216.414V168.311H226.035V158.69Z" fill="white"/>
<path d="M235.655 158.69H226.034V168.311H235.655V158.69Z" fill="white"/>
<path d="M245.275 158.69H235.655V168.311H245.275V158.69Z" fill="white"/>
<path d="M254.897 158.69H245.276V168.311H254.897V158.69Z" fill="white"/>
<path d="M264.517 158.69H254.896V168.311H264.517V158.69Z" fill="white"/>
<path d="M283.759 158.69H274.138V168.311H283.759V158.69Z" fill="white"/>
<path d="M303 158.69H293.379V168.311H303V158.69Z" fill="white"/>
<path d="M33.6207 168.31H24V177.931H33.6207V168.31Z" fill="white"/>
<path d="M62.4825 168.31H52.8618V177.931H62.4825V168.31Z" fill="white"/>
<path d="M81.7242 168.31H72.1035V177.931H81.7242V168.31Z" fill="white"/>
<path d="M100.966 168.31H91.3452V177.931H100.966V168.31Z" fill="white"/>
<path d="M110.587 168.31H100.966V177.931H110.587V168.31Z" fill="white"/>
<path d="M120.207 168.31H110.586V177.931H120.207V168.31Z" fill="white"/>
<path d="M129.828 168.31H120.207V177.931H129.828V168.31Z" fill="white"/>
<path d="M139.448 168.31H129.828V177.931H139.448V168.31Z" fill="white"/>
<path d="M177.931 168.31H168.31V177.931H177.931V168.31Z" fill="white"/>
<path d="M216.414 168.31H206.793V177.931H216.414V168.31Z" fill="white"/>
<path d="M283.759 168.31H274.138V177.931H283.759V168.31Z" fill="white"/>
<path d="M303 168.31H293.379V177.931H303V168.31Z" fill="white"/>
<path d="M33.6207 177.931H24V187.551H33.6207V177.931Z" fill="white"/>
<path d="M43.2413 177.931H33.6206V187.551H43.2413V177.931Z" fill="white"/>
<path d="M52.8624 177.931H43.2417V187.551H52.8624V177.931Z" fill="white"/>
<path d="M72.1031 177.931H62.4824V187.551H72.1031V177.931Z" fill="white"/>
<path d="M91.3448 177.931H81.7241V187.551H91.3448V177.931Z" fill="white"/>
<path d="M120.207 177.931H110.586V187.551H120.207V177.931Z" fill="white"/>
<path d="M149.069 177.931H139.448V187.551H149.069V177.931Z" fill="white"/>
<path d="M168.311 177.931H158.69V187.551H168.311V177.931Z" fill="white"/>
<path d="M187.551 177.931H177.931V187.551H187.551V177.931Z" fill="white"/>
<path d="M216.414 177.931H206.793V187.551H216.414V177.931Z" fill="white"/>
<path d="M226.035 177.931H216.414V187.551H226.035V177.931Z" fill="white"/>
<path d="M254.897 177.931H245.276V187.551H254.897V177.931Z" fill="white"/>
<path d="M274.138 177.931H264.518V187.551H274.138V177.931Z" fill="white"/>
<path d="M33.6207 187.552H24V197.172H33.6207V187.552Z" fill="white"/>
<path d="M43.2413 187.552H33.6206V197.172H43.2413V187.552Z" fill="white"/>
<path d="M52.8624 187.552H43.2417V197.172H52.8624V187.552Z" fill="white"/>
<path d="M100.966 187.552H91.3452V197.172H100.966V187.552Z" fill="white"/>
<path d="M120.207 187.552H110.586V197.172H120.207V187.552Z" fill="white"/>
<path d="M129.828 187.552H120.207V197.172H129.828V187.552Z" fill="white"/>
<path d="M158.69 187.552H149.069V197.172H158.69V187.552Z" fill="white"/>
<path d="M168.311 187.552H158.69V197.172H168.311V187.552Z" fill="white"/>
<path d="M187.551 187.552H177.931V197.172H187.551V187.552Z" fill="white"/>
<path d="M197.172 187.552H187.552V197.172H197.172V187.552Z" fill="white"/>
<path d="M216.414 187.552H206.793V197.172H216.414V187.552Z" fill="white"/>
<path d="M226.035 187.552H216.414V197.172H226.035V187.552Z" fill="white"/>
<path d="M264.517 187.552H254.896V197.172H264.517V187.552Z" fill="white"/>
<path d="M283.759 187.552H274.138V197.172H283.759V187.552Z" fill="white"/>
<path d="M293.379 187.552H283.758V197.172H293.379V187.552Z" fill="white"/>
<path d="M33.6207 197.172H24V206.793H33.6207V197.172Z" fill="white"/>
<path d="M43.2413 197.172H33.6206V206.793H43.2413V197.172Z" fill="white"/>
<path d="M52.8624 197.172H43.2417V206.793H52.8624V197.172Z" fill="white"/>
<path d="M62.4825 197.172H52.8618V206.793H62.4825V197.172Z" fill="white"/>
<path d="M72.1031 197.172H62.4824V206.793H72.1031V197.172Z" fill="white"/>
<path d="M91.3448 197.172H81.7241V206.793H91.3448V197.172Z" fill="white"/>
<path d="M100.966 197.172H91.3452V206.793H100.966V197.172Z" fill="white"/>
<path d="M120.207 197.172H110.586V206.793H120.207V197.172Z" fill="white"/>
<path d="M177.931 197.172H168.31V206.793H177.931V197.172Z" fill="white"/>
<path d="M206.793 197.172H197.172V206.793H206.793V197.172Z" fill="white"/>
<path d="M216.414 197.172H206.793V206.793H216.414V197.172Z" fill="white"/>
<path d="M254.897 197.172H245.276V206.793H254.897V197.172Z" fill="white"/>
<path d="M274.138 197.172H264.518V206.793H274.138V197.172Z" fill="white"/>
<path d="M303 197.172H293.379V206.793H303V197.172Z" fill="white"/>
<path d="M33.6207 206.793H24V216.414H33.6207V206.793Z" fill="white"/>
<path d="M43.2413 206.793H33.6206V216.414H43.2413V206.793Z" fill="white"/>
<path d="M62.4825 206.793H52.8618V216.414H62.4825V206.793Z" fill="white"/>
<path d="M129.828 206.793H120.207V216.414H129.828V206.793Z" fill="white"/>
<path d="M139.448 206.793H129.828V216.414H139.448V206.793Z" fill="white"/>
<path d="M149.069 206.793H139.448V216.414H149.069V206.793Z" fill="white"/>
<path d="M168.311 206.793H158.69V216.414H168.311V206.793Z" fill="white"/>
<path d="M206.793 206.793H197.172V216.414H206.793V206.793Z" fill="white"/>
<path d="M226.035 206.793H216.414V216.414H226.035V206.793Z" fill="white"/>
<path d="M264.517 206.793H254.896V216.414H264.517V206.793Z" fill="white"/>
<path d="M274.138 206.793H264.518V216.414H274.138V206.793Z" fill="white"/>
<path d="M283.759 206.793H274.138V216.414H283.759V206.793Z" fill="white"/>
<path d="M33.6207 216.414H24V226.035H33.6207V216.414Z" fill="white"/>
<path d="M43.2413 216.414H33.6206V226.035H43.2413V216.414Z" fill="white"/>
<path d="M52.8624 216.414H43.2417V226.035H52.8624V216.414Z" fill="white"/>
<path d="M62.4825 216.414H52.8618V226.035H62.4825V216.414Z" fill="white"/>
<path d="M72.1031 216.414H62.4824V226.035H72.1031V216.414Z" fill="white"/>
<path d="M81.7242 216.414H72.1035V226.035H81.7242V216.414Z" fill="white"/>
<path d="M91.3448 216.414H81.7241V226.035H91.3448V216.414Z" fill="white"/>
<path d="M120.207 216.414H110.586V226.035H120.207V216.414Z" fill="white"/>
<path d="M139.448 216.414H129.828V226.035H139.448V216.414Z" fill="white"/>
<path d="M149.069 216.414H139.448V226.035H149.069V216.414Z" fill="white"/>
<path d="M158.69 216.414H149.069V226.035H158.69V216.414Z" fill="white"/>
<path d="M168.311 216.414H158.69V226.035H168.311V216.414Z" fill="white"/>
<path d="M177.931 216.414H168.31V226.035H177.931V216.414Z" fill="white"/>
<path d="M187.551 216.414H177.931V226.035H187.551V216.414Z" fill="white"/>
<path d="M197.172 216.414H187.552V226.035H197.172V216.414Z" fill="white"/>
<path d="M216.414 216.414H206.793V226.035H216.414V216.414Z" fill="white"/>
<path d="M226.035 216.414H216.414V226.035H226.035V216.414Z" fill="white"/>
<path d="M235.655 216.414H226.034V226.035H235.655V216.414Z" fill="white"/>
<path d="M245.275 216.414H235.655V226.035H245.275V216.414Z" fill="white"/>
<path d="M254.897 216.414H245.276V226.035H254.897V216.414Z" fill="white"/>
<path d="M264.517 216.414H254.896V226.035H264.517V216.414Z" fill="white"/>
<path d="M274.138 216.414H264.518V226.035H274.138V216.414Z" fill="white"/>
<path d="M283.759 216.414H274.138V226.035H283.759V216.414Z" fill="white"/>
<path d="M293.379 216.414H283.758V226.035H293.379V216.414Z" fill="white"/>
<path d="M110.587 226.034H100.966V235.655H110.587V226.034Z" fill="white"/>
<path d="M168.311 226.034H158.69V235.655H168.311V226.034Z" fill="white"/>
<path d="M206.793 226.034H197.172V235.655H206.793V226.034Z" fill="white"/>
<path d="M226.035 226.034H216.414V235.655H226.035V226.034Z" fill="white"/>
<path d="M264.517 226.034H254.896V235.655H264.517V226.034Z" fill="white"/>
<path d="M274.138 226.034H264.518V235.655H274.138V226.034Z" fill="white"/>
<path d="M110.587 235.655H100.966V245.275H110.587V235.655Z" fill="white"/>
<path d="M120.207 235.655H110.586V245.275H120.207V235.655Z" fill="white"/>
<path d="M168.311 235.655H158.69V245.275H168.311V235.655Z" fill="white"/>
<path d="M197.172 235.655H187.552V245.275H197.172V235.655Z" fill="white"/>
<path d="M206.793 235.655H197.172V245.275H206.793V235.655Z" fill="white"/>
<path d="M216.414 235.655H206.793V245.275H216.414V235.655Z" fill="white"/>
<path d="M226.035 235.655H216.414V245.275H226.035V235.655Z" fill="white"/>
<path d="M245.275 235.655H235.655V245.275H245.275V235.655Z" fill="white"/>
<path d="M264.517 235.655H254.896V245.275H264.517V235.655Z" fill="white"/>
<path d="M274.138 235.655H264.518V245.275H274.138V235.655Z" fill="white"/>
<path d="M110.587 245.276H100.966V254.897H110.587V245.276Z" fill="white"/>
<path d="M120.207 245.276H110.586V254.897H120.207V245.276Z" fill="white"/>
<path d="M129.828 245.276H120.207V254.897H129.828V245.276Z" fill="white"/>
<path d="M168.311 245.276H158.69V254.897H168.311V245.276Z" fill="white"/>
<path d="M177.931 245.276H168.31V254.897H177.931V245.276Z" fill="white"/>
<path d="M197.172 245.276H187.552V254.897H197.172V245.276Z" fill="white"/>
<path d="M216.414 245.276H206.793V254.897H216.414V245.276Z" fill="white"/>
<path d="M226.035 245.276H216.414V254.897H226.035V245.276Z" fill="white"/>
<path d="M264.517 245.276H254.896V254.897H264.517V245.276Z" fill="white"/>
<path d="M303 245.276H293.379V254.897H303V245.276Z" fill="white"/>
<path d="M110.587 254.896H100.966V264.517H110.587V254.896Z" fill="white"/>
<path d="M129.828 254.896H120.207V264.517H129.828V254.896Z" fill="white"/>
<path d="M149.069 254.896H139.448V264.517H149.069V254.896Z" fill="white"/>
<path d="M158.69 254.896H149.069V264.517H158.69V254.896Z" fill="white"/>
<path d="M168.311 254.896H158.69V264.517H168.311V254.896Z" fill="white"/>
<path d="M197.172 254.896H187.552V264.517H197.172V254.896Z" fill="white"/>
<path d="M206.793 254.896H197.172V264.517H206.793V254.896Z" fill="white"/>
<path d="M216.414 254.896H206.793V264.517H216.414V254.896Z" fill="white"/>
<path d="M226.035 254.896H216.414V264.517H226.035V254.896Z" fill="white"/>
<path d="M235.655 254.896H226.034V264.517H235.655V254.896Z" fill="white"/>
<path d="M245.275 254.896H235.655V264.517H245.275V254.896Z" fill="white"/>
<path d="M254.897 254.896H245.276V264.517H254.897V254.896Z" fill="white"/>
<path d="M264.517 254.896H254.896V264.517H264.517V254.896Z" fill="white"/>
<path d="M274.138 254.896H264.518V264.517H274.138V254.896Z" fill="white"/>
<path d="M110.587 264.518H100.966V274.138H110.587V264.518Z" fill="white"/>
<path d="M139.448 264.518H129.828V274.138H139.448V264.518Z" fill="white"/>
<path d="M197.172 264.518H187.552V274.138H197.172V264.518Z" fill="white"/>
<path d="M206.793 264.518H197.172V274.138H206.793V264.518Z" fill="white"/>
<path d="M216.414 264.518H206.793V274.138H216.414V264.518Z" fill="white"/>
<path d="M235.655 264.518H226.034V274.138H235.655V264.518Z" fill="white"/>
<path d="M254.897 264.518H245.276V274.138H254.897V264.518Z" fill="white"/>
<path d="M293.379 264.518H283.758V274.138H293.379V264.518Z" fill="white"/>
<path d="M139.448 274.138H129.828V283.759H139.448V274.138Z" fill="white"/>
<path d="M149.069 274.138H139.448V283.759H149.069V274.138Z" fill="white"/>
<path d="M158.69 274.138H149.069V283.759H158.69V274.138Z" fill="white"/>
<path d="M177.931 274.138H168.31V283.759H177.931V274.138Z" fill="white"/>
<path d="M197.172 274.138H187.552V283.759H197.172V274.138Z" fill="white"/>
<path d="M226.035 274.138H216.414V283.759H226.035V274.138Z" fill="white"/>
<path d="M235.655 274.138H226.034V283.759H235.655V274.138Z" fill="white"/>
<path d="M254.897 274.138H245.276V283.759H254.897V274.138Z" fill="white"/>
<path d="M264.517 274.138H254.896V283.759H264.517V274.138Z" fill="white"/>
<path d="M283.759 274.138H274.138V283.759H283.759V274.138Z" fill="white"/>
<path d="M293.379 274.138H283.758V283.759H293.379V274.138Z" fill="white"/>
<path d="M303 274.138H293.379V283.759H303V274.138Z" fill="white"/>
<path d="M120.207 283.758H110.586V293.379H120.207V283.758Z" fill="white"/>
<path d="M129.828 283.758H120.207V293.379H129.828V283.758Z" fill="white"/>
<path d="M158.69 283.758H149.069V293.379H158.69V283.758Z" fill="white"/>
<path d="M187.551 283.758H177.931V293.379H187.551V283.758Z" fill="white"/>
<path d="M197.172 283.758H187.552V293.379H197.172V283.758Z" fill="white"/>
<path d="M206.793 283.758H197.172V293.379H206.793V283.758Z" fill="white"/>
<path d="M235.655 283.758H226.034V293.379H235.655V283.758Z" fill="white"/>
<path d="M245.275 283.758H235.655V293.379H245.275V283.758Z" fill="white"/>
<path d="M264.517 283.758H254.896V293.379H264.517V283.758Z" fill="white"/>
<path d="M274.138 283.758H264.518V293.379H274.138V283.758Z" fill="white"/>
<path d="M283.759 283.758H274.138V293.379H283.759V283.758Z" fill="white"/>
<path d="M303 283.758H293.379V293.379H303V283.758Z" fill="white"/>
<path d="M110.587 293.379H100.966V303H110.587V293.379Z" fill="white"/>
<path d="M129.828 293.379H120.207V303H129.828V293.379Z" fill="white"/>
<path d="M149.069 293.379H139.448V303H149.069V293.379Z" fill="white"/>
<path d="M177.931 293.379H168.31V303H177.931V293.379Z" fill="white"/>
<path d="M197.172 293.379H187.552V303H197.172V293.379Z" fill="white"/>
<path d="M226.035 293.379H216.414V303H226.035V293.379Z" fill="white"/>
<path d="M264.517 293.379H254.896V303H264.517V293.379Z" fill="white"/>
<path d="M81.2431 24H34.1017H24V34.1017V81.2431V91.3448H34.1017H81.2431H91.3448V81.2431V34.1017V24H81.2431ZM81.2431 81.2431H34.1017V34.1017H81.2431V81.2431Z" fill="white"/>
<path d="M292.898 24H245.757H235.655V34.1017V81.2431V91.3448H245.757H292.898H303V81.2431V34.1017V24H292.898ZM292.898 81.2431H245.757V34.1017H292.898V81.2431Z" fill="white"/>
<path d="M81.2431 235.655H34.1017H24V245.757V292.898V303H34.1017H81.2431H91.3448V292.898V245.757V235.655H81.2431ZM81.2431 292.898H34.1017V245.757H81.2431V292.898Z" fill="white"/>
<path d="M72.1038 43.2417H43.2417V72.1038H72.1038V43.2417Z" fill="white"/>
<path d="M283.759 43.2417H254.896V72.1038H283.759V43.2417Z" fill="white"/>
<path d="M72.1038 254.896H43.2417V283.759H72.1038V254.896Z" fill="white"/>
</svg>
