<svg width="16" height="16" viewBox="0 0 16 16" fill="none" xmlns="http://www.w3.org/2000/svg">
<path d="M7.66671 1.61738L2.6258 2.62556L1.61762 7.66646C1.60148 7.74718 1.60551 7.83063 1.62936 7.90941C1.65322 7.98819 1.69615 8.05987 1.75436 8.11807L8.28266 14.6464C8.32909 14.6928 8.3842 14.7296 8.44487 14.7548C8.50553 14.7799 8.57055 14.7928 8.63621 14.7928C8.70187 14.7928 8.76689 14.7799 8.82755 14.7548C8.88821 14.7296 8.94333 14.6928 8.98976 14.6464L14.6466 8.98952C14.693 8.94309 14.7299 8.88797 14.755 8.82731C14.7801 8.76664 14.7931 8.70163 14.7931 8.63596C14.7931 8.5703 14.7801 8.50529 14.755 8.44462C14.7299 8.38396 14.693 8.32884 14.6466 8.28241L8.11832 1.75411C8.06011 1.69591 7.98844 1.65297 7.90966 1.62912C7.83087 1.60527 7.74742 1.60123 7.66671 1.61738V1.61738Z" stroke="#3F63F6" stroke-linecap="round" stroke-linejoin="round"/>
<path d="M5.25 5.75C5.52614 5.75 5.75 5.52614 5.75 5.25C5.75 4.97386 5.52614 4.75 5.25 4.75C4.97386 4.75 4.75 4.97386 4.75 5.25C4.75 5.52614 4.97386 5.75 5.25 5.75Z" fill="#3F63F6"/>
</svg>
