<svg width="28" height="28" viewBox="0 0 28 28" fill="none" xmlns="http://www.w3.org/2000/svg">
<path d="M23.9274 11.3422L15.1766 3.38672C14.8552 3.0924 14.4352 2.92917 13.9994 2.9292C13.5636 2.92923 13.1436 3.09252 12.8222 3.38688L4.07295 11.3421C3.89269 11.5063 3.74865 11.7062 3.65001 11.9292C3.55138 12.1522 3.50033 12.3932 3.50012 12.637V22.7099C3.4951 23.1497 3.65112 23.5762 3.93878 23.9089C4.10266 24.0952 4.30446 24.2443 4.53066 24.3462C4.75686 24.4481 5.00223 24.5005 5.25034 24.4999H10.4963C10.7283 24.4999 10.9509 24.4077 11.115 24.2436C11.2791 24.0795 11.3713 23.8569 11.3713 23.6249V18.3741C11.3713 18.142 11.4635 17.9195 11.6276 17.7554C11.7916 17.5913 12.0142 17.4991 12.2463 17.4991H15.7463C15.9783 17.4991 16.2009 17.5913 16.365 17.7554C16.5291 17.9195 16.6213 18.142 16.6213 18.3741V23.6249C16.6213 23.8569 16.7135 24.0795 16.8776 24.2436C17.0416 24.4077 17.2642 24.4999 17.4963 24.4999H22.7525C23.04 24.5036 23.3237 24.4338 23.5766 24.2969C23.8557 24.1462 24.0888 23.9229 24.2514 23.6506C24.414 23.3783 24.4999 23.067 24.5001 22.7499V12.6371C24.4999 12.3933 24.4488 12.1522 24.3502 11.9293C24.2516 11.7063 24.1076 11.5064 23.9274 11.3422Z" fill="#3F63F6"/>
</svg>
