<svg width="16" height="16" viewBox="0 0 16 16" fill="none" xmlns="http://www.w3.org/2000/svg">
<path d="M8 14C11.3137 14 14 11.3137 14 8C14 4.68629 11.3137 2 8 2C4.68629 2 2 4.68629 2 8C2 11.3137 4.68629 14 8 14Z" stroke="#3F63F6" stroke-linecap="round" stroke-linejoin="round"/>
<path d="M8 11.5C9.933 11.5 11.5 9.933 11.5 8C11.5 6.067 9.933 4.5 8 4.5C6.067 4.5 4.5 6.067 4.5 8C4.5 9.933 6.067 11.5 8 11.5Z" stroke="#3F63F6" stroke-linecap="round" stroke-linejoin="round"/>
<path d="M8 4.5V2" stroke="#3F63F6" stroke-linecap="round" stroke-linejoin="round"/>
<path d="M5.52558 5.52509L3.75781 3.75732" stroke="#3F63F6" stroke-linecap="round" stroke-linejoin="round"/>
<path d="M4.5 8H2" stroke="#3F63F6" stroke-linecap="round" stroke-linejoin="round"/>
<path d="M5.52558 10.4751L3.75781 12.2429" stroke="#3F63F6" stroke-linecap="round" stroke-linejoin="round"/>
<path d="M8 11.5V14" stroke="#3F63F6" stroke-linecap="round" stroke-linejoin="round"/>
<path d="M10.4746 10.4751L12.2424 12.2429" stroke="#3F63F6" stroke-linecap="round" stroke-linejoin="round"/>
<path d="M11.5 8H14" stroke="#3F63F6" stroke-linecap="round" stroke-linejoin="round"/>
<path d="M10.4746 5.52509L12.2424 3.75732" stroke="#3F63F6" stroke-linecap="round" stroke-linejoin="round"/>
</svg>
