<svg width="327" height="488" viewBox="0 0 327 488" fill="none" xmlns="http://www.w3.org/2000/svg">
<path fill-rule="evenodd" clip-rule="evenodd" d="M0 16C0 7.16345 7.16344 0 16 0H311C319.837 0 327 7.16344 327 16V236C327 240.418 323.279 243.852 319.21 245.574C312.034 248.611 307 255.718 307 264C307 272.282 312.034 279.389 319.21 282.426C323.279 284.148 327 287.582 327 292V472C327 480.837 319.837 488 311 488H16C7.16345 488 0 480.837 0 472V292C0 287.582 3.72114 284.148 7.78992 282.426C14.9656 279.389 20 272.282 20 264C20 255.718 14.9656 248.611 7.78992 245.574C3.72114 243.852 0 240.418 0 236V16Z" fill="white"/>
</svg>
