<svg width="24" height="24" viewBox="0 0 24 24" fill="none" xmlns="http://www.w3.org/2000/svg">
<path d="M12 21C16.9706 21 21 16.9706 21 12C21 7.02944 16.9706 3 12 3C7.02944 3 3 7.02944 3 12C3 16.9706 7.02944 21 12 21Z" stroke="#0F1225" stroke-linecap="round" stroke-linejoin="round"/>
<path d="M12 17.625C12.4142 17.625 12.75 17.2892 12.75 16.875C12.75 16.4608 12.4142 16.125 12 16.125C11.5858 16.125 11.25 16.4608 11.25 16.875C11.25 17.2892 11.5858 17.625 12 17.625Z" fill="#0F1225"/>
<path d="M12 13.5005V12.7505C12.5192 12.7505 13.0267 12.5965 13.4584 12.3081C13.8901 12.0197 14.2265 11.6097 14.4252 11.13C14.6239 10.6504 14.6758 10.1226 14.5746 9.61338C14.4733 9.10418 14.2233 8.63645 13.8562 8.26933C13.489 7.90222 13.0213 7.65221 12.5121 7.55093C12.0029 7.44964 11.4751 7.50163 10.9955 7.70031C10.5158 7.89899 10.1058 8.23544 9.81739 8.66712C9.52895 9.0988 9.375 9.60631 9.375 10.1255" stroke="#0F1225" stroke-linecap="round" stroke-linejoin="round"/>
</svg>
