<svg width="16" height="16" viewBox="0 0 16 16" fill="none" xmlns="http://www.w3.org/2000/svg">
<path d="M10.8773 2.98442C10.1052 2.09287 9.23632 1.28993 8.28674 0.590408C8.2027 0.531564 8.10259 0.5 8 0.5C7.89741 0.5 7.7973 0.531564 7.71326 0.590408C6.76368 1.28993 5.89483 2.09287 5.12271 2.98442C3.40692 4.95757 2.5 7.03773 2.5 9.00002C2.5 10.4587 3.07946 11.8577 4.11091 12.8891C5.14236 13.9206 6.54131 14.5 8 14.5C9.45869 14.5 10.8576 13.9206 11.8891 12.8891C12.9205 11.8577 13.5 10.4587 13.5 9.00002C13.5 7.03773 12.5931 4.95757 10.8773 2.98442ZM11.4508 9.5873C11.3293 10.3014 10.9887 10.96 10.4762 11.4719C9.96372 11.9838 9.30467 12.3235 8.59042 12.4441C8.45965 12.4661 8.3255 12.4352 8.21747 12.3583C8.10945 12.2814 8.0364 12.1647 8.0144 12.034C7.99241 11.9032 8.02326 11.769 8.10017 11.661C8.17708 11.553 8.29376 11.4799 8.42453 11.4579C8.934 11.3719 9.40411 11.1296 9.76968 10.7645C10.1353 10.3994 10.3782 9.92955 10.4648 9.42018C10.487 9.28944 10.5602 9.17285 10.6683 9.09607C10.7764 9.01928 10.9106 8.9886 11.0414 9.01076C11.1721 9.03292 11.2887 9.10611 11.3655 9.21423C11.4423 9.32235 11.4729 9.45655 11.4508 9.5873Z" fill="#3F63F6"/>
</svg>
