<svg width="32" height="32" viewBox="0 0 32 32" fill="none" xmlns="http://www.w3.org/2000/svg">
<path d="M16 2C8.27812 2 2 8.27812 2 16C2 23.7219 8.27812 30 16 30C23.7219 30 30 23.7219 30 16C30 8.27812 23.7219 2 16 2Z" fill="#FF5A5F"/>
<path d="M15.9998 19.6867C15.082 18.5322 14.5421 17.5201 14.3621 16.6542C14.1821 15.9506 14.2541 15.3914 14.5601 14.9765C14.884 14.4894 15.3699 14.2549 15.9998 14.2549C16.6297 14.2549 17.1157 14.4894 17.4396 14.9765C17.7456 15.3914 17.8176 15.9506 17.6376 16.6542C17.4396 17.5382 16.8997 18.5484 15.9998 19.6867ZM21.0247 22.3566C19.4949 23.0241 17.9813 21.9597 16.6855 20.5165C18.829 17.8268 19.2249 15.7342 18.3053 14.3794C17.7654 13.6037 16.9915 13.2248 15.9998 13.2248C14.0021 13.2248 12.9025 14.9206 13.3345 16.8887C13.5864 17.9531 14.2523 19.1636 15.3141 20.5165C14.5177 21.4012 13.4728 22.4047 12.2186 22.519C10.4009 22.7896 8.97732 21.0217 9.62522 19.1978L14.2343 9.63307C14.6277 8.91403 15.1132 8.29812 15.998 8.29812C16.6459 8.29812 17.1499 8.67696 17.3658 8.98363L22.3708 19.1978C22.8612 20.432 22.2394 21.8308 21.0247 22.3566ZM23.3463 18.837L19.0612 9.90367C18.2513 8.244 17.6754 7.25 15.9998 7.25C14.3441 7.25 13.6404 8.40455 12.9205 9.90367L8.65337 18.837C7.73552 21.3644 9.62522 23.5833 11.9127 23.5833C12.0567 23.5833 12.1996 23.5653 12.3446 23.5653C13.5324 23.421 14.758 22.6633 15.9998 21.3085C17.2416 22.6615 18.4673 23.421 19.6551 23.5653C19.8001 23.5653 19.943 23.5833 20.087 23.5833C22.3745 23.5851 24.2642 21.3644 23.3463 18.837Z" fill="white"/>
</svg>
