<svg width="24" height="24" viewBox="0 0 24 24" fill="none" xmlns="http://www.w3.org/2000/svg">
<path d="M22.4216 9.13233C22.328 8.83834 22.1479 8.57941 21.9049 8.38931C21.6619 8.1992 21.3672 8.08676 21.0593 8.06665L15.4915 7.677L13.426 2.47607C13.3143 2.18854 13.1182 1.94148 12.8637 1.76727C12.6091 1.59305 12.3078 1.49981 11.9993 1.49976H11.9978C11.6898 1.50031 11.3891 1.59379 11.1351 1.76798C10.8811 1.94216 10.6855 2.18895 10.574 2.47607L8.4778 7.70703L2.94069 8.06665C2.63281 8.08676 2.33814 8.1992 2.09512 8.3893C1.8521 8.57941 1.67203 8.83834 1.57839 9.13233C1.4796 9.43048 1.47288 9.75148 1.5591 10.0535C1.64532 10.3555 1.82048 10.6246 2.06178 10.8257L6.32155 14.4263L5.05446 19.4104C4.96712 19.7461 4.98318 20.1004 5.10054 20.4269C5.21789 20.7533 5.43107 21.0367 5.71217 21.24C5.98357 21.4374 6.30812 21.5486 6.64358 21.5591C6.97903 21.5695 7.30987 21.4788 7.59303 21.2986L11.9876 18.5147C11.9934 18.5103 11.9993 18.5073 12.0125 18.5147L16.741 21.5103C16.9977 21.6743 17.2979 21.757 17.6024 21.7476C17.9069 21.7382 18.2014 21.6371 18.4475 21.4575C18.7022 21.2734 18.8954 21.0167 19.0018 20.7209C19.1082 20.4252 19.1228 20.1042 19.0437 19.8001L17.6975 14.3552L21.9382 10.8257C22.1795 10.6246 22.3547 10.3555 22.4409 10.0535C22.5272 9.75148 22.5204 9.43048 22.4216 9.13233Z" fill="#99E86C"/>
</svg>
