<svg width="40" height="40" viewBox="0 0 40 40" fill="none" xmlns="http://www.w3.org/2000/svg">
<path d="M34.9999 7.5H4.99994C4.33713 7.50076 3.70169 7.76439 3.23301 8.23307C2.76433 8.70175 2.5007 9.33719 2.49994 10V15.1151C2.49986 15.1212 2.49902 15.1271 2.49902 15.1332C2.49902 15.1393 2.49986 15.1453 2.49994 15.1514V30C2.5007 30.6628 2.76433 31.2983 3.23301 31.7669C3.70169 32.2356 4.33713 32.4992 4.99994 32.5H34.9999C35.6627 32.4992 36.2982 32.2356 36.7669 31.7669C37.2355 31.2983 37.4992 30.6628 37.4999 30V10C37.4992 9.33719 37.2355 8.70175 36.7669 8.23307C36.2982 7.76439 35.6627 7.50076 34.9999 7.5ZM21.249 27.5H18.749C18.4175 27.5 18.0996 27.3683 17.8651 27.1339C17.6307 26.8995 17.499 26.5815 17.499 26.25C17.499 25.9185 17.6307 25.6005 17.8651 25.3661C18.0996 25.1317 18.4175 25 18.749 25H21.249C21.5805 25 21.8985 25.1317 22.1329 25.3661C22.3673 25.6005 22.499 25.9185 22.499 26.25C22.499 26.5815 22.3673 26.8995 22.1329 27.1339C21.8985 27.3683 21.5805 27.5 21.249 27.5ZM31.249 27.5H26.249C25.9175 27.5 25.5996 27.3683 25.3651 27.1339C25.1307 26.8995 24.999 26.5815 24.999 26.25C24.999 25.9185 25.1307 25.6005 25.3651 25.3661C25.5996 25.1317 25.9175 25 26.249 25H31.249C31.5805 25 31.8985 25.1317 32.1329 25.3661C32.3673 25.6005 32.499 25.9185 32.499 26.25C32.499 26.5815 32.3673 26.8995 32.1329 27.1339C31.8985 27.3683 31.5805 27.5 31.249 27.5ZM4.99994 13.8832V10H34.9999L35.0003 13.8832H4.99994Z" fill="#1F36B1"/>
</svg>
