<svg width="24" height="24" viewBox="0 0 24 24" fill="none" xmlns="http://www.w3.org/2000/svg">
<path d="M16.5 5.25H21" stroke="#3F63F6" stroke-linecap="round" stroke-linejoin="round"/>
<path d="M18.75 3V7.5" stroke="#3F63F6" stroke-linecap="round" stroke-linejoin="round"/>
<path d="M2.90527 20.2491C3.82736 18.6531 5.15322 17.3278 6.74966 16.4064C8.34611 15.485 10.1569 15 12.0002 15C13.8434 15 15.6542 15.4851 17.2506 16.4065C18.8471 17.3279 20.1729 18.6533 21.0949 20.2493" stroke="#3F63F6" stroke-linecap="round" stroke-linejoin="round"/>
<path d="M17.6302 11.0796C17.2291 12.1625 16.5239 13.1066 15.5993 13.7984C14.6747 14.4902 13.5701 14.9004 12.418 14.9796C11.266 15.0588 10.1155 14.8037 9.10495 14.245C8.09437 13.6862 7.26659 12.8476 6.72108 11.8298C6.17557 10.812 5.93553 9.65831 6.02978 8.5074C6.12403 7.35648 6.54857 6.25726 7.2524 5.34177C7.95623 4.42629 8.90942 3.73348 9.99745 3.34659C11.0855 2.9597 12.2621 2.89518 13.3859 3.16077" stroke="#3F63F6" stroke-linecap="round" stroke-linejoin="round"/>
</svg>
