<svg width="72" height="56" viewBox="0 0 72 56" fill="none" xmlns="http://www.w3.org/2000/svg">
<path fill-rule="evenodd" clip-rule="evenodd" d="M51.7679 4C52.5378 5.33333 54.4622 5.33333 55.2321 4L56.0981 2.5C56.9912 0.952994 58.6419 0 60.4282 0H64C68.4183 0 72 3.58172 72 8V48C72 52.4183 68.4183 56 64 56H60.4282C58.6419 56 56.9912 55.047 56.0981 53.5L55.2321 52C54.4622 50.6667 52.5378 50.6667 51.7679 52L50.9019 53.5C50.0088 55.047 48.3581 56 46.5718 56H8C3.58172 56 0 52.4183 0 48V8C0 3.58172 3.58172 0 8 0H46.5718C48.3581 0 50.0088 0.952994 50.9019 2.5L51.7679 4Z" fill="#EFEFEF"/>
</svg>
