<svg width="78" height="78" viewBox="0 0 78 78" fill="none" xmlns="http://www.w3.org/2000/svg">
<path d="M39 52.5C48.1127 52.5 55.5 45.1127 55.5 36C55.5 26.8873 48.1127 19.5 39 19.5C29.8873 19.5 22.5 26.8873 22.5 36C22.5 45.1127 29.8873 52.5 39 52.5Z" fill="#ACAEBE"/>
<path d="M39 0C31.2865 0 23.7463 2.28731 17.3328 6.57269C10.9193 10.8581 5.92053 16.949 2.96872 24.0753C0.0168981 31.2017 -0.755432 39.0433 0.749392 46.6085C2.25422 54.1738 5.96861 61.1229 11.4229 66.5772C16.8771 72.0314 23.8262 75.7458 31.3915 77.2506C38.9568 78.7554 46.7984 77.9831 53.9247 75.0313C61.051 72.0795 67.142 67.0808 71.4273 60.6672C75.7127 54.2537 78 46.7135 78 39C77.9883 28.6601 73.8756 18.7471 66.5643 11.4358C59.2529 4.12438 49.3399 0.0117029 39 0ZM63.6593 60.9038C61.251 57.4147 58.128 54.4779 54.4977 52.2883C50.3231 56.2753 44.7726 58.5 39 58.5C33.2274 58.5 27.6769 56.2753 23.5023 52.2883C19.872 54.4779 16.749 57.4147 14.3407 60.9038C10.1126 56.1495 7.34898 50.2743 6.38271 43.9857C5.41644 37.697 6.28868 31.2632 8.89439 25.4588C11.5001 19.6544 15.7282 14.7271 21.0695 11.2701C26.4108 7.81307 32.6376 5.97382 39 5.97382C45.3624 5.97382 51.5892 7.81307 56.9305 11.2701C62.2718 14.7271 66.4998 19.6544 69.1056 25.4588C71.7113 31.2632 72.5835 37.697 71.6172 43.9857C70.651 50.2743 67.8874 56.1495 63.6593 60.9038Z" fill="#ACAEBE"/>
</svg>
