<svg width="29" height="28" viewBox="0 0 29 28" fill="none" xmlns="http://www.w3.org/2000/svg">
<path d="M17.4994 22.7492V17.4991C17.4994 17.267 17.4072 17.0444 17.2431 16.8803C17.079 16.7163 16.8564 16.6241 16.6244 16.6241H13.1244C12.8923 16.6241 12.6697 16.7163 12.5056 16.8803C12.3415 17.0444 12.2494 17.267 12.2494 17.4991V22.7492C12.2494 22.9812 12.1572 23.2038 11.9931 23.3679C11.829 23.5319 11.6065 23.6241 11.3745 23.6242L6.12511 23.6249C6.01019 23.6249 5.8964 23.6023 5.79023 23.5583C5.68406 23.5143 5.58758 23.4499 5.50632 23.3686C5.42506 23.2874 5.3606 23.1909 5.31662 23.0847C5.27264 22.9786 5.25 22.8648 5.25 22.7499V12.637C5.25 12.5151 5.27547 12.3945 5.32478 12.2831C5.3741 12.1716 5.44616 12.0716 5.53636 11.9896L14.2858 4.03424C14.4468 3.8878 14.6567 3.80665 14.8744 3.80664C15.0921 3.80663 15.3019 3.88777 15.463 4.0342L24.2136 11.9896C24.3038 12.0716 24.3759 12.1716 24.4252 12.2831C24.4745 12.3946 24.5 12.5151 24.5 12.637V22.7499C24.5 22.8648 24.4774 22.9786 24.4334 23.0847C24.3894 23.1909 24.3249 23.2874 24.2437 23.3686C24.1624 23.4499 24.0659 23.5143 23.9598 23.5583C23.8536 23.6023 23.7398 23.6249 23.6249 23.6249L18.3742 23.6242C18.1422 23.6241 17.9197 23.5319 17.7556 23.3679C17.5915 23.2038 17.4994 22.9812 17.4994 22.7492V22.7492Z" stroke="#ACAEBE" stroke-linecap="round" stroke-linejoin="round"/>
</svg>
