<svg width="16" height="16" viewBox="0 0 16 16" fill="none" xmlns="http://www.w3.org/2000/svg">
<path d="M11.002 2.00001C10.4199 1.99901 9.84559 2.13385 9.32479 2.39381C8.80399 2.65377 8.35103 3.03168 8.00195 3.49747C7.52918 2.86844 6.87057 2.404 6.11931 2.16988C5.36805 1.93576 4.56219 1.94382 3.81576 2.19291C3.06934 2.442 2.42014 2.91951 1.96003 3.55787C1.49993 4.19623 1.25222 4.96311 1.25195 5.75001C1.25195 10.2414 7.492 13.7875 7.75763 13.9363C7.83228 13.9781 7.9164 14 8.00195 14C8.08751 14 8.17163 13.9781 8.24628 13.9363C9.39394 13.2641 10.4711 12.4782 11.4614 11.5904C13.6448 9.62531 14.752 7.66031 14.752 5.75001C14.7508 4.75579 14.3554 3.80262 13.6524 3.0996C12.9493 2.39658 11.9962 2.00113 11.002 2.00001V2.00001Z" fill="#3F63F6"/>
</svg>
