<svg width="33" height="32" viewBox="0 0 33 32" fill="none" xmlns="http://www.w3.org/2000/svg">
<path d="M22.167 2H10.167C9.37162 2.00091 8.60909 2.31727 8.04668 2.87968C7.48426 3.4421 7.1679 4.20463 7.16699 5V27C7.1679 27.7954 7.48426 28.5579 8.04668 29.1203C8.60909 29.6827 9.37162 29.9991 10.167 30H22.167C22.9624 29.9991 23.7249 29.6827 24.2873 29.1203C24.8497 28.5579 25.1661 27.7954 25.167 27V5C25.1661 4.20463 24.8497 3.4421 24.2873 2.87968C23.7249 2.31727 22.9624 2.00091 22.167 2ZM10.167 4H22.167C22.4321 4.0003 22.6863 4.10576 22.8738 4.29323C23.0612 4.4807 23.1667 4.73488 23.167 5V6H9.16699V5C9.1673 4.73488 9.27275 4.4807 9.46022 4.29323C9.64769 4.10576 9.90187 4.0003 10.167 4ZM22.167 28H10.167C9.90187 27.9997 9.64769 27.8942 9.46022 27.7068C9.27275 27.5193 9.1673 27.2651 9.16699 27V26H23.167V27C23.1667 27.2651 23.0612 27.5193 22.8738 27.7068C22.6863 27.8942 22.4321 27.9997 22.167 28Z" fill="#3F63F6"/>
</svg>
