<svg width="33" height="32" viewBox="0 0 33 32" fill="none" xmlns="http://www.w3.org/2000/svg">
<path d="M26.499 5H6.49902C4.84217 5 3.49902 6.34315 3.49902 8V22C3.49902 23.6569 4.84217 25 6.49902 25H26.499C28.1559 25 29.499 23.6569 29.499 22V8C29.499 6.34315 28.1559 5 26.499 5Z" fill="#3F63F6"/>
<path d="M20.499 27H12.499C12.2338 27 11.9795 27.1054 11.7919 27.2929C11.6044 27.4804 11.499 27.7348 11.499 28C11.499 28.2652 11.6044 28.5196 11.7919 28.7071C11.9795 28.8946 12.2338 29 12.499 29H20.499C20.7642 29 21.0186 28.8946 21.2061 28.7071C21.3937 28.5196 21.499 28.2652 21.499 28C21.499 27.7348 21.3937 27.4804 21.2061 27.2929C21.0186 27.1054 20.7642 27 20.499 27Z" fill="#3F63F6"/>
</svg>
