<svg width="33" height="32" viewBox="0 0 33 32" fill="none" xmlns="http://www.w3.org/2000/svg">
<path d="M22.5876 5.96884C21.0434 4.18574 19.3056 2.57986 17.4065 1.18082C17.2384 1.06313 17.0382 1 16.833 1C16.6278 1 16.4276 1.06313 16.2595 1.18082C14.3604 2.57986 12.6227 4.18574 11.0784 5.96884C7.64685 9.91513 5.83301 14.0755 5.83301 18C5.83301 20.9174 6.99193 23.7153 9.05483 25.7782C11.1177 27.8411 13.9156 29 16.833 29C19.7504 29 22.5483 27.8411 24.6112 25.7782C26.6741 23.7153 27.833 20.9174 27.833 18C27.833 14.0755 26.0192 9.91513 22.5876 5.96884ZM23.7346 19.1746C23.4917 20.6028 22.8105 21.92 21.7855 22.9438C20.7604 23.9675 19.4423 24.647 18.0139 24.8882C17.7523 24.9322 17.484 24.8705 17.268 24.7166C17.0519 24.5628 16.9058 24.3294 16.8618 24.0679C16.8178 23.8064 16.8795 23.5381 17.0333 23.322C17.1872 23.106 17.4205 22.9599 17.6821 22.9159C18.701 22.7439 19.6412 22.2592 20.3724 21.5289C21.1035 20.7987 21.5894 19.8591 21.7626 18.8404C21.807 18.5789 21.9533 18.3457 22.1696 18.1921C22.3858 18.0386 22.6542 17.9772 22.9157 18.0215C23.1772 18.0658 23.4104 18.2122 23.5639 18.4285C23.7175 18.6447 23.7789 18.9131 23.7346 19.1746Z" fill="#3F63F6"/>
</svg>
